<?xml version="1.0" encoding="UTF-8"?><svg  width="97" height="19" id="Capa_2" xmlns="http://www.w3.org/2000/svg" viewBox="0 0 564.1 117.58"><defs><style>.cls-1{fill:#c72573;}.cls-2{fill:#0d1c2c;}</style></defs><g id="Capa_1-2"><g><g><path class="cls-2" d="M33.48,87.21H0V9.57H32.04c16.24,0,25.25,8.45,25.25,20.02,0,9.46-5.67,15.35-13.24,17.8,8.79,1.56,15.02,9.68,15.02,18.8,0,12.35-9.46,21.02-25.58,21.02Zm-3.67-65.07H15.57v19.47h14.24c7.34,0,11.57-3.34,11.57-9.68s-4.23-9.79-11.57-9.79Zm1.11,31.48H15.57v20.91h15.68c7.56,0,12.01-3.67,12.01-10.23s-4.78-10.68-12.35-10.68Z"/><path class="cls-2" d="M91.21,24.58c9.9,0,16.69,4.67,20.36,9.79v-8.79h15.68v61.62h-15.68v-9.01c-3.67,5.34-10.68,10.01-20.47,10.01-15.57,0-28.03-12.79-28.03-32.04s12.46-31.59,28.14-31.59Zm4,13.68c-8.34,0-16.24,6.23-16.24,17.91s7.9,18.35,16.24,18.35,16.35-6.45,16.35-18.13-7.79-18.13-16.35-18.13Z"/><path class="cls-2" d="M138.04,4.89h15.57V51.73l20.69-26.14h20.25l-27.14,30.92,27.36,30.7h-20.24l-20.91-26.25v26.25h-15.57V4.89Z"/><path class="cls-2" d="M196.89,9.12c0-5.12,4-9.12,9.57-9.12s9.57,4,9.57,9.12-4.12,9.12-9.57,9.12-9.57-4-9.57-9.12Zm1.67,16.46h15.57v61.62h-15.57V25.58Z"/><path class="cls-2" d="M268.19,53.17c0-9.9-5.45-15.24-13.68-15.24s-13.9,5.34-13.9,15.24v34.04h-15.57V25.58h15.57v7.68c4-5.23,10.68-8.57,18.58-8.57,14.35,0,24.58,9.34,24.58,26.36v36.15h-15.57V53.17Z"/><path class="cls-2" d="M318.25,24.58c9.68,0,16.69,4.45,20.36,9.79v-8.79h15.68v62.07c0,16.69-10.23,29.92-30.48,29.92-17.35,0-29.48-8.68-31.04-22.8h15.46c1.56,5.56,7.34,9.23,15.13,9.23,8.56,0,15.24-4.89,15.24-16.35v-9.57c-3.67,5.34-10.68,10.12-20.36,10.12-15.68,0-28.14-12.79-28.14-32.04s12.46-31.59,28.14-31.59Zm4,13.68c-8.34,0-16.24,6.23-16.24,17.91s7.9,18.35,16.24,18.35,16.35-6.45,16.35-18.13-7.79-18.13-16.35-18.13Z"/></g><g><path class="cls-1" d="M407.36,33.39h-6.29v29.3h6.29c9.34,0,14.62-5.34,14.62-14.55s-5.27-14.74-14.62-14.74Z"/><path class="cls-1" d="M523.45,8.82h-116.36c-21.76,0-39.53,16.48-40.6,37.21l-.05-.06v41.24h157.01c22.45,0,40.65-17.55,40.65-39.19s-18.2-39.19-40.65-39.19Zm-115.77,61.43h-15.51V25.89h15.51c14.17,0,23.39,8.77,23.39,22.24s-9.21,22.12-23.39,22.12Zm53.25-37.18h-16.84v11.12h14.93v7.05h-14.93v11.76h16.84v7.25h-25.74V25.83h25.74v7.25Zm29.1,37.18h-10.8l-16.27-44.36h9.53l12.2,35.27,12.14-35.27h9.47l-16.27,44.36Zm34.38,.45c-9.21,0-16.33-4.83-16.46-13.22h9.53c.25,3.56,2.61,5.91,6.74,5.91s6.67-2.22,6.67-5.4c0-9.6-22.88-3.81-22.82-19.89,0-8.01,6.48-12.84,15.63-12.84s15.32,4.64,15.89,12.65h-9.79c-.19-2.92-2.54-5.21-6.36-5.27-3.5-.13-6.1,1.59-6.1,5.21,0,8.9,22.75,3.94,22.75,19.57,0,6.99-5.59,13.28-15.7,13.28Z"/></g></g></g></svg>